<svg width="22" height="23" viewBox="0 0 22 23" fill="none" xmlns="http://www.w3.org/2000/svg">
<path fill-rule="evenodd" clip-rule="evenodd" d="M17.6 3.06667H19.8C20.3835 3.06667 20.9431 3.30899 21.3556 3.74032C21.7682 4.17165 22 4.75667 22 5.36667V20.7C22 21.31 21.7682 21.895 21.3556 22.3263C20.9431 22.7577 20.3835 23 19.8 23H2.2C1.61652 23 1.05695 22.7577 0.644365 22.3263C0.231785 21.895 0 21.31 0 20.7L0 5.36667C0 4.75667 0.231785 4.17165 0.644365 3.74032C1.05695 3.30899 1.61652 3.06667 2.2 3.06667H4.4V0H5.86667V3.06667H16.1333V0H17.6V3.06667ZM8.8 12.2667H4.4V10.7333H8.8V12.2667ZM17.6 10.7333H13.2V12.2667H17.6V10.7333ZM8.8 16.8667H4.4V15.3333H8.8V16.8667ZM13.2 16.8667H17.6V15.3333H13.2V16.8667Z" fill="#E1E1E1"/>
</svg>
