<svg width="22" height="23" viewBox="0 0 22 23" fill="none" xmlns="http://www.w3.org/2000/svg">
<path d="M3.66667 12.4583H9.16667C9.67083 12.4583 10.0833 12.0271 10.0833 11.5V3.83333C10.0833 3.30625 9.67083 2.875 9.16667 2.875H3.66667C3.1625 2.875 2.75 3.30625 2.75 3.83333V11.5C2.75 12.0271 3.1625 12.4583 3.66667 12.4583ZM3.66667 20.125H9.16667C9.67083 20.125 10.0833 19.6938 10.0833 19.1667V15.3333C10.0833 14.8062 9.67083 14.375 9.16667 14.375H3.66667C3.1625 14.375 2.75 14.8062 2.75 15.3333V19.1667C2.75 19.6938 3.1625 20.125 3.66667 20.125ZM12.8333 20.125H18.3333C18.8375 20.125 19.25 19.6938 19.25 19.1667V11.5C19.25 10.9729 18.8375 10.5417 18.3333 10.5417H12.8333C12.3292 10.5417 11.9167 10.9729 11.9167 11.5V19.1667C11.9167 19.6938 12.3292 20.125 12.8333 20.125ZM11.9167 3.83333V7.66667C11.9167 8.19375 12.3292 8.625 12.8333 8.625H18.3333C18.8375 8.625 19.25 8.19375 19.25 7.66667V3.83333C19.25 3.30625 18.8375 2.875 18.3333 2.875H12.8333C12.3292 2.875 11.9167 3.30625 11.9167 3.83333Z" fill="#4B4F4F"/>
</svg>
