<svg width="22" height="23" viewBox="0 0 22 23" fill="none" xmlns="http://www.w3.org/2000/svg">
<path d="M3.65869 12.8393C3.6586 12.6393 3.69625 12.4412 3.76949 12.2564C3.84272 12.0716 3.9501 11.9037 4.08549 11.7623C4.22087 11.6209 4.38159 11.5089 4.55845 11.4325C4.73532 11.3562 4.92485 11.3171 5.11619 11.3174C5.30756 11.3171 5.4971 11.3563 5.67398 11.4326C5.85086 11.509 6.01161 11.621 6.14704 11.7624C6.28247 11.9037 6.38992 12.0716 6.46324 12.2564C6.53657 12.4412 6.57433 12.6393 6.57438 12.8393C6.57438 13.2436 6.42079 13.6312 6.14739 13.917C5.87399 14.2029 5.50318 14.3634 5.11654 14.3634C4.72989 14.3634 4.35908 14.2029 4.08568 13.917C3.81229 13.6312 3.65869 13.2436 3.65869 12.8393Z" fill="#E1E1E1"/>
<path d="M17.7364 11.9072C18.3775 11.9072 18.8952 12.4326 18.9007 13.0978L18.9031 16.3121H7.20422V11.9105L17.7364 11.9072Z" fill="#E1E1E1"/>
<path d="M5.85724 16.3094C6.2529 16.3094 6.5743 15.9734 6.5743 15.5597C6.5743 15.1461 6.2529 14.8101 5.85724 14.8101H3.78443C3.69028 14.81 3.59705 14.8294 3.51007 14.867C3.42309 14.9047 3.34407 14.9599 3.27753 15.0296C3.21099 15.0992 3.15824 15.1819 3.1223 15.2728C3.08635 15.3638 3.06792 15.4613 3.06805 15.5597C3.06805 15.9734 3.38705 16.3094 3.78443 16.3094H5.85724Z" fill="#E1E1E1"/>
<path d="M19.5968 19.4704V22.8223H21.4953V12.1927C21.4955 12.0626 21.4711 11.9337 21.4236 11.8135C21.376 11.6932 21.3063 11.5839 21.2184 11.4918C21.1304 11.3997 21.026 11.3267 20.911 11.2768C20.796 11.227 20.6728 11.2013 20.5483 11.2012C20.2964 11.2008 20.0546 11.3051 19.8762 11.491C19.6978 11.6769 19.5973 11.9293 19.5968 12.1927V17.0712H2.5506V10.1874C2.5506 9.64009 2.0941 9.19482 1.56919 9.19482V9.19554C1.04601 9.19554 0.63385 9.64009 0.63385 10.1871V22.822H2.55026V19.4701H19.5968V19.4704Z" fill="#E1E1E1"/>
<path d="M13.5809 0.0501641C14.1883 0.0501641 15.1831 0.31718 15.7366 0.950398L14.9906 2.44827C14.8244 2.22278 14.6108 2.04024 14.3664 1.91475C14.122 1.78925 13.8532 1.72416 13.5809 1.72449C13.0141 1.72449 12.5098 2.00121 12.1836 2.43354L11.4229 0.983461C12.0633 0.313586 12.9488 0.0498047 13.5809 0.0498047V0.0501641ZM13.3661 1.55954H13.7916V1.11427H14.2175V0.670086H13.7916V0.22518H13.3661V0.670086H12.9409V1.11427H13.3661V1.55954Z" fill="#E1E1E1"/>
<path d="M14.9468 3.68268C14.9468 4.06226 14.8026 4.42629 14.5459 4.69469C14.2891 4.9631 13.9409 5.11389 13.5778 5.11389C13.2148 5.11389 12.8666 4.9631 12.6098 4.69469C12.3531 4.42629 12.2089 4.06226 12.2089 3.68268C12.2089 3.30309 12.3531 2.93906 12.6098 2.67066C12.8666 2.40225 13.2148 2.25146 13.5778 2.25146C13.9409 2.25146 14.2891 2.40225 14.5459 2.67066C14.8026 2.93906 14.9468 3.30309 14.9468 3.68268Z" fill="#E1E1E1"/>
<path d="M12.2617 5.52197C11.3047 5.52736 10.7503 6.33919 10.6255 6.79775L9.45947 10.7987H10.6396L11.4989 7.72889H12.1105L11.2535 10.798H15.8965L15.0458 7.72889H15.6569L16.539 10.7987H17.7016L16.5311 6.79775C16.4067 6.34494 15.8639 5.54857 14.9278 5.52413L12.2617 5.52197Z" fill="#E1E1E1"/>
<path d="M3.5383 6.44157C1.85805 6.44157 0.492676 5.01341 0.492676 3.25679C0.492676 1.4998 1.85771 0.0712891 3.5383 0.0712891C5.21786 0.0712891 6.5853 1.50016 6.5853 3.25679C6.5853 5.01341 5.21752 6.44157 3.5383 6.44157ZM3.53727 5.6531C4.80158 5.6531 5.83077 4.57821 5.83077 3.25607C5.83077 1.93537 4.80193 0.85868 3.53727 0.85868C2.27364 0.85868 1.24618 1.93501 1.24618 3.25607C1.24618 4.57857 2.27364 5.6531 3.53727 5.6531Z" fill="#E1E1E1"/>
<path d="M3.55375 3.6777C3.51873 3.6945 3.48021 3.70173 3.44179 3.69871C3.40337 3.6957 3.36631 3.68253 3.33409 3.66045C3.30681 3.6421 3.28362 3.61785 3.26606 3.58933C3.24851 3.56082 3.23701 3.5287 3.23234 3.49514L3.22925 1.644C3.23154 1.58208 3.25668 1.52349 3.2994 1.48053C3.34212 1.43757 3.39909 1.41357 3.45836 1.41357C3.51763 1.41357 3.5746 1.43757 3.61731 1.48053C3.66003 1.52349 3.68517 1.58208 3.68747 1.644V3.08006L4.86172 2.50183C4.91607 2.47844 4.97695 2.4778 5.03174 2.50005C5.08653 2.52229 5.13104 2.56572 5.15604 2.62133C5.18105 2.67694 5.18464 2.74048 5.16607 2.79878C5.14749 2.85708 5.10818 2.90568 5.05628 2.93451L3.5534 3.67734L3.55375 3.6777Z" fill="#E1E1E1"/>
</svg>
