<svg width="22" height="23" viewBox="0 0 22 23" fill="none" xmlns="http://www.w3.org/2000/svg">
<path d="M12.8333 6.10938V0H1.375C0.613021 0 0 0.480664 0 1.07812V21.9219C0 22.5193 0.613021 23 1.375 23H20.625C21.387 23 22 22.5193 22 21.9219V7.1875H14.2083C13.4521 7.1875 12.8333 6.70234 12.8333 6.10938ZM16.7595 14.172L17.4075 14.68C17.7656 14.9608 17.7656 15.4158 17.4075 15.6966L15.6945 17.0398L17.4167 18.3901C17.7747 18.6709 17.7747 19.1259 17.4167 19.4067L16.7687 19.9148C16.4106 20.1955 15.8303 20.1955 15.4722 19.9148L13.75 18.564L12.0278 19.9143C11.6697 20.1951 11.0894 20.1951 10.7313 19.9143L10.0833 19.4062C9.72526 19.1255 9.72526 18.6704 10.0833 18.3897L11.8055 17.0393L8.40698 14.375H7.33333V16.5312C7.33333 16.9284 6.92313 17.25 6.41667 17.25H5.5C4.99354 17.25 4.58333 16.9284 4.58333 16.5312V9.34375C4.58333 8.94664 4.99354 8.625 5.5 8.625H10.0833C12.1086 8.625 13.75 9.91201 13.75 11.5C13.75 12.588 12.9697 13.5237 11.833 14.012L13.75 15.5151L15.463 14.172C15.8211 13.8912 16.4015 13.8912 16.7595 14.172ZM10.0833 12.2188H7.33333V10.7812H10.0833C10.5886 10.7812 11 11.1038 11 11.5C11 11.8962 10.5886 12.2188 10.0833 12.2188ZM22 5.47598V5.75H14.6667V0H15.0161C15.3828 0 15.7323 0.112305 15.9901 0.314453L21.599 4.7168C21.8568 4.91895 22 5.19297 22 5.47598Z" fill="#E1E1E1"/>
</svg>
